<svg width="140" height="450" viewBox="0 0 140 450" fill="none" xmlns="http://www.w3.org/2000/svg">
<rect x="1" y="1" width="138" height="448" stroke="#EC407A" stroke-width="2"/>
<path opacity="0.6" d="M125.86 14.32H134.26V45.4H125.86V51.84H97.44V45.4H88.06V51.84H60.34V45.4H53.34V14.32H60.34V9.13999H88.06V14.32H97.44V9.13999H125.86V14.32ZM5.46 138.36V11.52H49.84V138.36H5.46ZM25.76 44.7V107.98H29.68V44.7H25.76ZM53.34 139.34V55.2H134.26V139.34H53.34ZM84.14 79.14H79.1V89.5H84.14V79.14ZM106.68 89.5V79.14H101.64V89.5H106.68ZM79.1 105.18V115.54H84.14V105.18H79.1ZM101.64 115.54H106.68V105.18H101.64V115.54ZM134.12 165.3V201.14H6.58V165.3H45.36V158.02H95.2V165.3H134.12ZM120.54 254.2H135.1V288.78H5.46V254.2H18.76L12.32 210.94V205.76H55.58L61.6 254.2H77.7L83.72 205.76H126.98V210.94L120.54 254.2ZM111.86 309L134.54 322.58V345.4H109.62L100.94 339.8H96.04L88.06 345.4H62.44V322.58L85.12 309H111.86ZM49.14 402.8V407.7H59.36V431.92H49.14V439.48H16.52V431.92H6.16V407.7H16.52V402.8H6.16V343.44H16.52V338.68H6.16V315.3H16.52V310.54H49.14V315.3H59.22V338.68H49.14V343.44H59.22V402.8H49.14ZM62.72 372.42V348.9H96.04V439.2H62.3V426.18L69.72 423.52V418.76L65.94 420.3H62.58V400.42L69.72 397.9V395.8L62.58 394.12V376.48H65.94L69.72 377.46V372.42H62.72ZM98.98 372.42V348.9H134.4V439.2H100.24V426.18L106.4 423.52V419.74L102.48 421.28H99.12V400.42L106.4 397.9V395.8L98.98 394.12V376.48H102.48L106.4 377.46V372.42H98.98ZM37.38 366.4V362.48H27.58V366.4H37.38ZM27.58 379.42V383.34H37.38V379.42H27.58Z" fill="#FAFAFA"/>
</svg>
