<svg width="1017" height="150" viewBox="0 0 1017 150" fill="none" xmlns="http://www.w3.org/2000/svg">
<rect x="1" y="1" width="1015" height="148" stroke="#EC407A" stroke-width="2"/>
<mask id="path-2-inside-1_207_430" fill="white">
<path d="M5.88 133.6V33.78L17.92 16.84H64.82L72.66 25.24H75.88L83.72 16.84H131.88L143.92 33.78V133.6H101.78V56.74H92.68V132.2H56.84V56.74H47.74V133.6H5.88ZM199.684 39.66H155.164V12.36H199.684V39.66ZM199.684 134.3H155.164V46.66H199.684V134.3ZM229.021 40.78H304.621V134.3H277.741L269.061 122.96L258.141 134.3H227.901L210.121 115.82V59.26L229.021 40.78ZM250.581 98.04H264.021V71.44H250.581V98.04ZM333.181 135L315.121 116.52V58.98L333.181 40.64H390.301L408.361 58.98V116.52L390.301 135H333.181ZM354.321 101.4H369.581V74.24H354.321V101.4ZM468.4 16.56H513.48V90.9H557.44V133.88H468.4V16.56ZM611.207 39.66H566.687V12.36H611.207V39.66ZM611.207 134.3H566.687V46.66H611.207V134.3ZM628.365 68.5H682.965V100.7H628.365V68.5ZM759.065 17.54H803.025V133.6H759.065V95.1H744.645V133.6H700.685V17.54H744.645V55.48H759.065V17.54ZM833.045 40.78H908.645V134.3H881.765L873.085 122.96L862.165 134.3H831.925L814.145 115.82V59.26L833.045 40.78ZM854.605 98.04H868.045V71.44H854.605V98.04ZM919.145 134.3V40.78H992.645L1011.4 59.26V134.3H969.545V78.86H960.585V134.3H919.145Z"/>
</mask>
<path d="M5.88 133.6H3.88V135.6H5.88V133.6ZM5.88 33.78L4.24981 32.6213L3.88 33.1417V33.78H5.88ZM17.92 16.84V14.84H16.8878L16.2898 15.6813L17.92 16.84ZM64.82 16.84L66.2821 15.4754L65.6891 14.84H64.82V16.84ZM72.66 25.24L71.1979 26.6046L71.7909 27.24H72.66V25.24ZM75.88 25.24V27.24H76.7491L77.3421 26.6046L75.88 25.24ZM83.72 16.84V14.84H82.8509L82.2579 15.4754L83.72 16.84ZM131.88 16.84L133.51 15.6813L132.912 14.84H131.88V16.84ZM143.92 33.78H145.92V33.1417L145.55 32.6213L143.92 33.78ZM143.92 133.6V135.6H145.92V133.6H143.92ZM101.78 133.6H99.78V135.6H101.78V133.6ZM101.78 56.74H103.78V54.74H101.78V56.74ZM92.68 56.74V54.74H90.68V56.74H92.68ZM92.68 132.2V134.2H94.68V132.2H92.68ZM56.84 132.2H54.84V134.2H56.84V132.2ZM56.84 56.74H58.84V54.74H56.84V56.74ZM47.74 56.74V54.74H45.74V56.74H47.74ZM47.74 133.6V135.6H49.74V133.6H47.74ZM7.88 133.6V33.78H3.88V133.6H7.88ZM7.51019 34.9386L19.5502 17.9986L16.2898 15.6813L4.24981 32.6213L7.51019 34.9386ZM17.92 18.84H64.82V14.84H17.92V18.84ZM63.3579 18.2046L71.1979 26.6046L74.1221 23.8754L66.2821 15.4754L63.3579 18.2046ZM72.66 27.24H75.88V23.24H72.66V27.24ZM77.3421 26.6046L85.1821 18.2046L82.2579 15.4754L74.4179 23.8754L77.3421 26.6046ZM83.72 18.84H131.88V14.84H83.72V18.84ZM130.25 17.9986L142.29 34.9386L145.55 32.6213L133.51 15.6813L130.25 17.9986ZM141.92 33.78V133.6H145.92V33.78H141.92ZM143.92 131.6H101.78V135.6H143.92V131.6ZM103.78 133.6V56.74H99.78V133.6H103.78ZM101.78 54.74H92.68V58.74H101.78V54.74ZM90.68 56.74V132.2H94.68V56.74H90.68ZM92.68 130.2H56.84V134.2H92.68V130.2ZM58.84 132.2V56.74H54.84V132.2H58.84ZM56.84 54.74H47.74V58.74H56.84V54.74ZM45.74 56.74V133.6H49.74V56.74H45.74ZM47.74 131.6H5.88V135.6H47.74V131.6ZM199.684 39.66V41.66H201.684V39.66H199.684ZM155.164 39.66H153.164V41.66H155.164V39.66ZM155.164 12.36V10.36H153.164V12.36H155.164ZM199.684 12.36H201.684V10.36H199.684V12.36ZM199.684 134.3V136.3H201.684V134.3H199.684ZM155.164 134.3H153.164V136.3H155.164V134.3ZM155.164 46.66V44.66H153.164V46.66H155.164ZM199.684 46.66H201.684V44.66H199.684V46.66ZM199.684 37.66H155.164V41.66H199.684V37.66ZM157.164 39.66V12.36H153.164V39.66H157.164ZM155.164 14.36H199.684V10.36H155.164V14.36ZM197.684 12.36V39.66H201.684V12.36H197.684ZM199.684 132.3H155.164V136.3H199.684V132.3ZM157.164 134.3V46.66H153.164V134.3H157.164ZM155.164 48.66H199.684V44.66H155.164V48.66ZM197.684 46.66V134.3H201.684V46.66H197.684ZM229.021 40.78V38.78H228.206L227.623 39.35L229.021 40.78ZM304.621 40.78H306.621V38.78H304.621V40.78ZM304.621 134.3V136.3H306.621V134.3H304.621ZM277.741 134.3L276.153 135.516L276.754 136.3H277.741V134.3ZM269.061 122.96L270.65 121.744L269.235 119.896L267.621 121.573L269.061 122.96ZM258.141 134.3V136.3H258.992L259.582 135.687L258.141 134.3ZM227.901 134.3L226.46 135.687L227.05 136.3H227.901V134.3ZM210.121 115.82H208.121V116.626L208.68 117.207L210.121 115.82ZM210.121 59.26L208.723 57.83L208.121 58.4184V59.26H210.121ZM250.581 98.04H248.581V100.04H250.581V98.04ZM264.021 98.04V100.04H266.021V98.04H264.021ZM264.021 71.44H266.021V69.44H264.021V71.44ZM250.581 71.44V69.44H248.581V71.44H250.581ZM229.021 42.78H304.621V38.78H229.021V42.78ZM302.621 40.78V134.3H306.621V40.78H302.621ZM304.621 132.3H277.741V136.3H304.621V132.3ZM279.33 133.084L270.65 121.744L267.473 124.176L276.153 135.516L279.33 133.084ZM267.621 121.573L256.701 132.913L259.582 135.687L270.502 124.347L267.621 121.573ZM258.141 132.3H227.901V136.3H258.141V132.3ZM229.343 132.913L211.563 114.433L208.68 117.207L226.46 135.687L229.343 132.913ZM212.121 115.82V59.26H208.121V115.82H212.121ZM211.52 60.69L230.42 42.21L227.623 39.35L208.723 57.83L211.52 60.69ZM250.581 100.04H264.021V96.04H250.581V100.04ZM266.021 98.04V71.44H262.021V98.04H266.021ZM264.021 69.44H250.581V73.44H264.021V69.44ZM248.581 71.44V98.04H252.581V71.44H248.581ZM333.181 135L331.751 136.398L332.339 137H333.181V135ZM315.121 116.52H313.121V117.335L313.691 117.918L315.121 116.52ZM315.121 58.98L313.696 57.5767L313.121 58.1606V58.98H315.121ZM333.181 40.64V38.64H332.344L331.756 39.2367L333.181 40.64ZM390.301 40.64L391.726 39.2367L391.139 38.64H390.301V40.64ZM408.361 58.98H410.361V58.1606L409.786 57.5767L408.361 58.98ZM408.361 116.52L409.792 117.918L410.361 117.335V116.52H408.361ZM390.301 135V137H391.143L391.732 136.398L390.301 135ZM354.321 101.4H352.321V103.4H354.321V101.4ZM369.581 101.4V103.4H371.581V101.4H369.581ZM369.581 74.24H371.581V72.24H369.581V74.24ZM354.321 74.24V72.24H352.321V74.24H354.321ZM334.612 133.602L316.552 115.122L313.691 117.918L331.751 136.398L334.612 133.602ZM317.121 116.52V58.98H313.121V116.52H317.121ZM316.546 60.3833L334.606 42.0433L331.756 39.2367L313.696 57.5767L316.546 60.3833ZM333.181 42.64H390.301V38.64H333.181V42.64ZM388.876 42.0433L406.936 60.3833L409.786 57.5767L391.726 39.2367L388.876 42.0433ZM406.361 58.98V116.52H410.361V58.98H406.361ZM406.931 115.122L388.871 133.602L391.732 136.398L409.792 117.918L406.931 115.122ZM390.301 133H333.181V137H390.301V133ZM354.321 103.4H369.581V99.4H354.321V103.4ZM371.581 101.4V74.24H367.581V101.4H371.581ZM369.581 72.24H354.321V76.24H369.581V72.24ZM352.321 74.24V101.4H356.321V74.24H352.321ZM468.4 16.56V14.56H466.4V16.56H468.4ZM513.48 16.56H515.48V14.56H513.48V16.56ZM513.48 90.9H511.48V92.9H513.48V90.9ZM557.44 90.9H559.44V88.9H557.44V90.9ZM557.44 133.88V135.88H559.44V133.88H557.44ZM468.4 133.88H466.4V135.88H468.4V133.88ZM468.4 18.56H513.48V14.56H468.4V18.56ZM511.48 16.56V90.9H515.48V16.56H511.48ZM513.48 92.9H557.44V88.9H513.48V92.9ZM555.44 90.9V133.88H559.44V90.9H555.44ZM557.44 131.88H468.4V135.88H557.44V131.88ZM470.4 133.88V16.56H466.4V133.88H470.4ZM611.207 39.66V41.66H613.207V39.66H611.207ZM566.687 39.66H564.687V41.66H566.687V39.66ZM566.687 12.36V10.36H564.687V12.36H566.687ZM611.207 12.36H613.207V10.36H611.207V12.36ZM611.207 134.3V136.3H613.207V134.3H611.207ZM566.687 134.3H564.687V136.3H566.687V134.3ZM566.687 46.66V44.66H564.687V46.66H566.687ZM611.207 46.66H613.207V44.66H611.207V46.66ZM611.207 37.66H566.687V41.66H611.207V37.66ZM568.687 39.66V12.36H564.687V39.66H568.687ZM566.687 14.36H611.207V10.36H566.687V14.36ZM609.207 12.36V39.66H613.207V12.36H609.207ZM611.207 132.3H566.687V136.3H611.207V132.3ZM568.687 134.3V46.66H564.687V134.3H568.687ZM566.687 48.66H611.207V44.66H566.687V48.66ZM609.207 46.66V134.3H613.207V46.66H609.207ZM628.365 68.5V66.5H626.365V68.5H628.365ZM682.965 68.5H684.965V66.5H682.965V68.5ZM682.965 100.7V102.7H684.965V100.7H682.965ZM628.365 100.7H626.365V102.7H628.365V100.7ZM628.365 70.5H682.965V66.5H628.365V70.5ZM680.965 68.5V100.7H684.965V68.5H680.965ZM682.965 98.7H628.365V102.7H682.965V98.7ZM630.365 100.7V68.5H626.365V100.7H630.365ZM759.065 17.54V15.54H757.065V17.54H759.065ZM803.025 17.54H805.025V15.54H803.025V17.54ZM803.025 133.6V135.6H805.025V133.6H803.025ZM759.065 133.6H757.065V135.6H759.065V133.6ZM759.065 95.1H761.065V93.1H759.065V95.1ZM744.645 95.1V93.1H742.645V95.1H744.645ZM744.645 133.6V135.6H746.645V133.6H744.645ZM700.685 133.6H698.685V135.6H700.685V133.6ZM700.685 17.54V15.54H698.685V17.54H700.685ZM744.645 17.54H746.645V15.54H744.645V17.54ZM744.645 55.48H742.645V57.48H744.645V55.48ZM759.065 55.48V57.48H761.065V55.48H759.065ZM759.065 19.54H803.025V15.54H759.065V19.54ZM801.025 17.54V133.6H805.025V17.54H801.025ZM803.025 131.6H759.065V135.6H803.025V131.6ZM761.065 133.6V95.1H757.065V133.6H761.065ZM759.065 93.1H744.645V97.1H759.065V93.1ZM742.645 95.1V133.6H746.645V95.1H742.645ZM744.645 131.6H700.685V135.6H744.645V131.6ZM702.685 133.6V17.54H698.685V133.6H702.685ZM700.685 19.54H744.645V15.54H700.685V19.54ZM742.645 17.54V55.48H746.645V17.54H742.645ZM744.645 57.48H759.065V53.48H744.645V57.48ZM761.065 55.48V17.54H757.065V55.48H761.065ZM833.045 40.78V38.78H832.23L831.647 39.35L833.045 40.78ZM908.645 40.78H910.645V38.78H908.645V40.78ZM908.645 134.3V136.3H910.645V134.3H908.645ZM881.765 134.3L880.177 135.516L880.777 136.3H881.765V134.3ZM873.085 122.96L874.673 121.744L873.258 119.896L871.644 121.573L873.085 122.96ZM862.165 134.3V136.3H863.015L863.605 135.687L862.165 134.3ZM831.925 134.3L830.484 135.687L831.074 136.3H831.925V134.3ZM814.145 115.82H812.145V116.626L812.704 117.207L814.145 115.82ZM814.145 59.26L812.747 57.83L812.145 58.4184V59.26H814.145ZM854.605 98.04H852.605V100.04H854.605V98.04ZM868.045 98.04V100.04H870.045V98.04H868.045ZM868.045 71.44H870.045V69.44H868.045V71.44ZM854.605 71.44V69.44H852.605V71.44H854.605ZM833.045 42.78H908.645V38.78H833.045V42.78ZM906.645 40.78V134.3H910.645V40.78H906.645ZM908.645 132.3H881.765V136.3H908.645V132.3ZM883.353 133.084L874.673 121.744L871.497 124.176L880.177 135.516L883.353 133.084ZM871.644 121.573L860.724 132.913L863.605 135.687L874.526 124.347L871.644 121.573ZM862.165 132.3H831.925V136.3H862.165V132.3ZM833.366 132.913L815.586 114.433L812.704 117.207L830.484 135.687L833.366 132.913ZM816.145 115.82V59.26H812.145V115.82H816.145ZM815.543 60.69L834.443 42.21L831.647 39.35L812.747 57.83L815.543 60.69ZM854.605 100.04H868.045V96.04H854.605V100.04ZM870.045 98.04V71.44H866.045V98.04H870.045ZM868.045 69.44H854.605V73.44H868.045V69.44ZM852.605 71.44V98.04H856.605V71.44H852.605ZM919.145 134.3H917.145V136.3H919.145V134.3ZM919.145 40.78V38.78H917.145V40.78H919.145ZM992.645 40.78L994.048 39.3552L993.464 38.78H992.645V40.78ZM1011.4 59.26H1013.4V58.4227L1012.81 57.8352L1011.4 59.26ZM1011.4 134.3V136.3H1013.4V134.3H1011.4ZM969.545 134.3H967.545V136.3H969.545V134.3ZM969.545 78.86H971.545V76.86H969.545V78.86ZM960.585 78.86V76.86H958.585V78.86H960.585ZM960.585 134.3V136.3H962.585V134.3H960.585ZM921.145 134.3V40.78H917.145V134.3H921.145ZM919.145 42.78H992.645V38.78H919.145V42.78ZM991.241 42.2048L1010 60.6848L1012.81 57.8352L994.048 39.3552L991.241 42.2048ZM1009.4 59.26V134.3H1013.4V59.26H1009.4ZM1011.4 132.3H969.545V136.3H1011.4V132.3ZM971.545 134.3V78.86H967.545V134.3H971.545ZM969.545 76.86H960.585V80.86H969.545V76.86ZM958.585 78.86V134.3H962.585V78.86H958.585ZM960.585 132.3H919.145V136.3H960.585V132.3Z" fill="#FAFAFA" mask="url(#path-2-inside-1_207_430)"/>
</svg>
