<svg width="1203" height="647" viewBox="0 0 1203 647" fill="none" xmlns="http://www.w3.org/2000/svg">
<path d="M22.4 140.545L25.025 143.835V154.37L17.99 160.81V161.23H25.445V170.575H1.575V163.855L13.055 152.34V151.08H1.89V140.545H22.4ZM28.7861 166.76V144.815L32.8461 140.65H49.7161L53.8111 144.815V166.76L49.7161 170.68H32.8461L28.7861 166.76ZM39.2511 150.45V161.09H43.3461V150.45H39.2511ZM77.9762 140.545L80.6012 143.835V154.37L73.5662 160.81V161.23H81.0212V170.575H57.1512V163.855L68.6312 152.34V151.08H57.4662V140.545H77.9762ZM84.2923 170.645V161.405H96.9973V159.165H84.9573V151.885H96.9973V149.68H84.4673V140.615H107.707V152.725L105.747 154.965L108.232 157.24V167.355L104.942 170.645H84.2923ZM146.693 141.315V151.43H140.708V170.4H129.123V151.43H123.138V141.315H146.693ZM163.721 141.385H174.711V170.4H163.721V160.775H160.116V170.4H149.126V141.385H160.116V150.87H163.721V141.385ZM188.376 161.335H200.241V170.435H177.491V141.385H200.101V150.485H188.376V152.515H199.821V159.165H188.376V161.335ZM237.875 151.465H226.85V154.195H237.63V162.455H226.85V170.4H215.23V141.385H237.875V151.465ZM261.316 140.545L263.941 143.835V154.37L256.906 160.81V161.23H264.361V170.575H240.491V163.855L251.971 152.34V151.08H240.806V140.545H261.316ZM278.132 161.335H289.997V170.435H267.247V141.385H289.857V150.485H278.132V152.515H289.577V159.165H278.132V161.335ZM337.046 140.825V149.785H305.161V140.825H314.856V139.005H327.316V140.825H337.046ZM333.651 163.05H337.291V171.695H304.881V163.05H308.206L306.596 152.235V150.94H317.411L318.916 163.05H322.941L324.446 150.94H335.261V152.235L333.651 163.05ZM370.366 164.135V166.375L368.756 167.215L371.521 168.125V171.8H359.166L356.191 170.12L353.426 171.905H340.721V168.055L343.731 166.935L341.771 165.92V164.135H339.741V158.115H341.946V157.205H339.811V153.985L343.136 151.955H339.916V146.635H350.626V145.69H340.511V139.635H371.626V143.66L368.371 145.69H361.511V146.635H372.221V151.955H368.931L372.326 153.985V157.205H363.821L361.511 154.545V157.205H352.621V158.115H372.606V164.135H370.366ZM350.626 157.17V154.545L348.351 157.17H350.626ZM352.831 163.75V164.38L356.366 166.025L359.376 164.31V163.75H352.831ZM389.686 146.145L389.511 147.755H390.281V153.18H374.671V147.755H376.176L376.001 146.145H375.266V140.37H378.696V139.005H386.116V140.37H390.211V146.145H389.686ZM407.466 147.755V153.145H391.016V147.755H392.066L391.856 146.145H391.051V140.37H395.356V139.005H402.776V140.37H407.186V146.145H406.241L406.066 147.755H407.466ZM381.916 146.145L382.091 147.755H383.351L383.526 146.145H381.916ZM398.156 146.145L398.366 147.755H399.521L399.696 146.145H398.156ZM375.476 162.945V153.985H390.211V162.945H388.496V163.82H390.001V169L388.251 171.87H383.176V162.945H382.651L381.706 171.87H375.126V168.545L376.631 162.945H375.476ZM405.646 163.82H407.641V171.87H398.576V162.945H398.051L397.211 171.87H390.806V168.545L392.136 162.945H391.156V153.985H406.871V162.945H404.526V164.975H405.121L405.646 163.82ZM381.636 157.905V159.025H384.086V157.905H381.636ZM397.561 157.905V159.025H400.256V157.905H397.561ZM440.926 164.415H442.326V171.835H417.791L416.076 170.295L414.431 171.835H410.056V148.28H417.931V164.415H419.296L420.136 162.735H418.701V158.605H421.361V157.765H419.051V153.495H421.361V152.69H418.701V139.53H429.726V147.895H425.351V148.7H429.726V151.115L428.501 152.305V153.495H431.896V152.69H430.461V139.53H441.626V147.895H437.146V148.7H441.626V152.69H439.071V153.495H441.486V157.765H439.071V158.605H441.661V162.735H439.981L440.926 164.415ZM417.931 140.125V147.3H410.091V140.125H417.931ZM425.176 143.87H423.671V144.885H425.176V143.87ZM437.041 143.87H435.466V144.885H437.041V143.87ZM428.501 157.765V158.605H431.896V157.765H428.501ZM429.096 163.085L428.746 164.415H431.441L431.196 163.085H429.096Z" fill="#222222"/>
<rect x="1064" y="1" width="138" height="448" stroke="#EC407A" stroke-width="2"/>
<path opacity="0.6" d="M1188.86 14.32H1197.26V45.4H1188.86V51.84H1160.44V45.4H1151.06V51.84H1123.34V45.4H1116.34V14.32H1123.34V9.13999H1151.06V14.32H1160.44V9.13999H1188.86V14.32ZM1068.46 138.36V11.52H1112.84V138.36H1068.46ZM1088.76 44.7V107.98H1092.68V44.7H1088.76ZM1116.34 139.34V55.2H1197.26V139.34H1116.34ZM1147.14 79.14H1142.1V89.5H1147.14V79.14ZM1169.68 89.5V79.14H1164.64V89.5H1169.68ZM1142.1 105.18V115.54H1147.14V105.18H1142.1ZM1164.64 115.54H1169.68V105.18H1164.64V115.54ZM1197.12 165.3V201.14H1069.58V165.3H1108.36V158.02H1158.2V165.3H1197.12ZM1183.54 254.2H1198.1V288.78H1068.46V254.2H1081.76L1075.32 210.94V205.76H1118.58L1124.6 254.2H1140.7L1146.72 205.76H1189.98V210.94L1183.54 254.2ZM1174.86 309L1197.54 322.58V345.4H1172.62L1163.94 339.8H1159.04L1151.06 345.4H1125.44V322.58L1148.12 309H1174.86ZM1112.14 402.8V407.7H1122.36V431.92H1112.14V439.48H1079.52V431.92H1069.16V407.7H1079.52V402.8H1069.16V343.44H1079.52V338.68H1069.16V315.3H1079.52V310.54H1112.14V315.3H1122.22V338.68H1112.14V343.44H1122.22V402.8H1112.14ZM1125.72 372.42V348.9H1159.04V439.2H1125.3V426.18L1132.72 423.52V418.76L1128.94 420.3H1125.58V400.42L1132.72 397.9V395.8L1125.58 394.12V376.48H1128.94L1132.72 377.46V372.42H1125.72ZM1161.98 372.42V348.9H1197.4V439.2H1163.24V426.18L1169.4 423.52V419.74L1165.48 421.28H1162.12V400.42L1169.4 397.9V395.8L1161.98 394.12V376.48H1165.48L1169.4 377.46V372.42H1161.98ZM1100.38 366.4V362.48H1090.58V366.4H1100.38ZM1090.58 379.42V383.34H1100.38V379.42H1090.58Z" fill="#FAFAFA"/>
<rect x="54" y="498" width="1015" height="148" stroke="#EC407A" stroke-width="2"/>
<mask id="path-5-inside-1_163_578" fill="white">
<path d="M58.88 630.6V530.78L70.92 513.84H117.82L125.66 522.24H128.88L136.72 513.84H184.88L196.92 530.78V630.6H154.78V553.74H145.68V629.2H109.84V553.74H100.74V630.6H58.88ZM252.684 536.66H208.164V509.36H252.684V536.66ZM252.684 631.3H208.164V543.66H252.684V631.3ZM282.021 537.78H357.621V631.3H330.741L322.061 619.96L311.141 631.3H280.901L263.121 612.82V556.26L282.021 537.78ZM303.581 595.04H317.021V568.44H303.581V595.04ZM386.181 632L368.121 613.52V555.98L386.181 537.64H443.301L461.361 555.98V613.52L443.301 632H386.181ZM407.321 598.4H422.581V571.24H407.321V598.4ZM521.4 513.56H566.48V587.9H610.44V630.88H521.4V513.56ZM664.207 536.66H619.687V509.36H664.207V536.66ZM664.207 631.3H619.687V543.66H664.207V631.3ZM681.365 565.5H735.965V597.7H681.365V565.5ZM812.065 514.54H856.025V630.6H812.065V592.1H797.645V630.6H753.685V514.54H797.645V552.48H812.065V514.54ZM886.045 537.78H961.645V631.3H934.765L926.085 619.96L915.165 631.3H884.925L867.145 612.82V556.26L886.045 537.78ZM907.605 595.04H921.045V568.44H907.605V595.04ZM972.145 631.3V537.78H1045.64L1064.4 556.26V631.3H1022.54V575.86H1013.58V631.3H972.145Z"/>
</mask>
<path d="M58.88 630.6H56.88V632.6H58.88V630.6ZM58.88 530.78L57.2498 529.621L56.88 530.142V530.78H58.88ZM70.92 513.84V511.84H69.8878L69.2898 512.681L70.92 513.84ZM117.82 513.84L119.282 512.475L118.689 511.84H117.82V513.84ZM125.66 522.24L124.198 523.605L124.791 524.24H125.66V522.24ZM128.88 522.24V524.24H129.749L130.342 523.605L128.88 522.24ZM136.72 513.84V511.84H135.851L135.258 512.475L136.72 513.84ZM184.88 513.84L186.51 512.681L185.912 511.84H184.88V513.84ZM196.92 530.78H198.92V530.142L198.55 529.621L196.92 530.78ZM196.92 630.6V632.6H198.92V630.6H196.92ZM154.78 630.6H152.78V632.6H154.78V630.6ZM154.78 553.74H156.78V551.74H154.78V553.74ZM145.68 553.74V551.74H143.68V553.74H145.68ZM145.68 629.2V631.2H147.68V629.2H145.68ZM109.84 629.2H107.84V631.2H109.84V629.2ZM109.84 553.74H111.84V551.74H109.84V553.74ZM100.74 553.74V551.74H98.74V553.74H100.74ZM100.74 630.6V632.6H102.74V630.6H100.74ZM60.88 630.6V530.78H56.88V630.6H60.88ZM60.5102 531.939L72.5502 514.999L69.2898 512.681L57.2498 529.621L60.5102 531.939ZM70.92 515.84H117.82V511.84H70.92V515.84ZM116.358 515.205L124.198 523.605L127.122 520.875L119.282 512.475L116.358 515.205ZM125.66 524.24H128.88V520.24H125.66V524.24ZM130.342 523.605L138.182 515.205L135.258 512.475L127.418 520.875L130.342 523.605ZM136.72 515.84H184.88V511.84H136.72V515.84ZM183.25 514.999L195.29 531.939L198.55 529.621L186.51 512.681L183.25 514.999ZM194.92 530.78V630.6H198.92V530.78H194.92ZM196.92 628.6H154.78V632.6H196.92V628.6ZM156.78 630.6V553.74H152.78V630.6H156.78ZM154.78 551.74H145.68V555.74H154.78V551.74ZM143.68 553.74V629.2H147.68V553.74H143.68ZM145.68 627.2H109.84V631.2H145.68V627.2ZM111.84 629.2V553.74H107.84V629.2H111.84ZM109.84 551.74H100.74V555.74H109.84V551.74ZM98.74 553.74V630.6H102.74V553.74H98.74ZM100.74 628.6H58.88V632.6H100.74V628.6ZM252.684 536.66V538.66H254.684V536.66H252.684ZM208.164 536.66H206.164V538.66H208.164V536.66ZM208.164 509.36V507.36H206.164V509.36H208.164ZM252.684 509.36H254.684V507.36H252.684V509.36ZM252.684 631.3V633.3H254.684V631.3H252.684ZM208.164 631.3H206.164V633.3H208.164V631.3ZM208.164 543.66V541.66H206.164V543.66H208.164ZM252.684 543.66H254.684V541.66H252.684V543.66ZM252.684 534.66H208.164V538.66H252.684V534.66ZM210.164 536.66V509.36H206.164V536.66H210.164ZM208.164 511.36H252.684V507.36H208.164V511.36ZM250.684 509.36V536.66H254.684V509.36H250.684ZM252.684 629.3H208.164V633.3H252.684V629.3ZM210.164 631.3V543.66H206.164V631.3H210.164ZM208.164 545.66H252.684V541.66H208.164V545.66ZM250.684 543.66V631.3H254.684V543.66H250.684ZM282.021 537.78V535.78H281.206L280.623 536.35L282.021 537.78ZM357.621 537.78H359.621V535.78H357.621V537.78ZM357.621 631.3V633.3H359.621V631.3H357.621ZM330.741 631.3L329.153 632.516L329.754 633.3H330.741V631.3ZM322.061 619.96L323.65 618.744L322.235 616.896L320.621 618.573L322.061 619.96ZM311.141 631.3V633.3H311.992L312.582 632.687L311.141 631.3ZM280.901 631.3L279.46 632.687L280.05 633.3H280.901V631.3ZM263.121 612.82H261.121V613.626L261.68 614.207L263.121 612.82ZM263.121 556.26L261.723 554.83L261.121 555.418V556.26H263.121ZM303.581 595.04H301.581V597.04H303.581V595.04ZM317.021 595.04V597.04H319.021V595.04H317.021ZM317.021 568.44H319.021V566.44H317.021V568.44ZM303.581 568.44V566.44H301.581V568.44H303.581ZM282.021 539.78H357.621V535.78H282.021V539.78ZM355.621 537.78V631.3H359.621V537.78H355.621ZM357.621 629.3H330.741V633.3H357.621V629.3ZM332.33 630.084L323.65 618.744L320.473 621.176L329.153 632.516L332.33 630.084ZM320.621 618.573L309.701 629.913L312.582 632.687L323.502 621.347L320.621 618.573ZM311.141 629.3H280.901V633.3H311.141V629.3ZM282.343 629.913L264.563 611.433L261.68 614.207L279.46 632.687L282.343 629.913ZM265.121 612.82V556.26H261.121V612.82H265.121ZM264.52 557.69L283.42 539.21L280.623 536.35L261.723 554.83L264.52 557.69ZM303.581 597.04H317.021V593.04H303.581V597.04ZM319.021 595.04V568.44H315.021V595.04H319.021ZM317.021 566.44H303.581V570.44H317.021V566.44ZM301.581 568.44V595.04H305.581V568.44H301.581ZM386.181 632L384.751 633.398L385.339 634H386.181V632ZM368.121 613.52H366.121V614.335L366.691 614.918L368.121 613.52ZM368.121 555.98L366.696 554.577L366.121 555.161V555.98H368.121ZM386.181 537.64V535.64H385.344L384.756 536.237L386.181 537.64ZM443.301 537.64L444.726 536.237L444.139 535.64H443.301V537.64ZM461.361 555.98H463.361V555.161L462.786 554.577L461.361 555.98ZM461.361 613.52L462.792 614.918L463.361 614.335V613.52H461.361ZM443.301 632V634H444.143L444.732 633.398L443.301 632ZM407.321 598.4H405.321V600.4H407.321V598.4ZM422.581 598.4V600.4H424.581V598.4H422.581ZM422.581 571.24H424.581V569.24H422.581V571.24ZM407.321 571.24V569.24H405.321V571.24H407.321ZM387.612 630.602L369.552 612.122L366.691 614.918L384.751 633.398L387.612 630.602ZM370.121 613.52V555.98H366.121V613.52H370.121ZM369.546 557.383L387.606 539.043L384.756 536.237L366.696 554.577L369.546 557.383ZM386.181 539.64H443.301V535.64H386.181V539.64ZM441.876 539.043L459.936 557.383L462.786 554.577L444.726 536.237L441.876 539.043ZM459.361 555.98V613.52H463.361V555.98H459.361ZM459.931 612.122L441.871 630.602L444.732 633.398L462.792 614.918L459.931 612.122ZM443.301 630H386.181V634H443.301V630ZM407.321 600.4H422.581V596.4H407.321V600.4ZM424.581 598.4V571.24H420.581V598.4H424.581ZM422.581 569.24H407.321V573.24H422.581V569.24ZM405.321 571.24V598.4H409.321V571.24H405.321ZM521.4 513.56V511.56H519.4V513.56H521.4ZM566.48 513.56H568.48V511.56H566.48V513.56ZM566.48 587.9H564.48V589.9H566.48V587.9ZM610.44 587.9H612.44V585.9H610.44V587.9ZM610.44 630.88V632.88H612.44V630.88H610.44ZM521.4 630.88H519.4V632.88H521.4V630.88ZM521.4 515.56H566.48V511.56H521.4V515.56ZM564.48 513.56V587.9H568.48V513.56H564.48ZM566.48 589.9H610.44V585.9H566.48V589.9ZM608.44 587.9V630.88H612.44V587.9H608.44ZM610.44 628.88H521.4V632.88H610.44V628.88ZM523.4 630.88V513.56H519.4V630.88H523.4ZM664.207 536.66V538.66H666.207V536.66H664.207ZM619.687 536.66H617.687V538.66H619.687V536.66ZM619.687 509.36V507.36H617.687V509.36H619.687ZM664.207 509.36H666.207V507.36H664.207V509.36ZM664.207 631.3V633.3H666.207V631.3H664.207ZM619.687 631.3H617.687V633.3H619.687V631.3ZM619.687 543.66V541.66H617.687V543.66H619.687ZM664.207 543.66H666.207V541.66H664.207V543.66ZM664.207 534.66H619.687V538.66H664.207V534.66ZM621.687 536.66V509.36H617.687V536.66H621.687ZM619.687 511.36H664.207V507.36H619.687V511.36ZM662.207 509.36V536.66H666.207V509.36H662.207ZM664.207 629.3H619.687V633.3H664.207V629.3ZM621.687 631.3V543.66H617.687V631.3H621.687ZM619.687 545.66H664.207V541.66H619.687V545.66ZM662.207 543.66V631.3H666.207V543.66H662.207ZM681.365 565.5V563.5H679.365V565.5H681.365ZM735.965 565.5H737.965V563.5H735.965V565.5ZM735.965 597.7V599.7H737.965V597.7H735.965ZM681.365 597.7H679.365V599.7H681.365V597.7ZM681.365 567.5H735.965V563.5H681.365V567.5ZM733.965 565.5V597.7H737.965V565.5H733.965ZM735.965 595.7H681.365V599.7H735.965V595.7ZM683.365 597.7V565.5H679.365V597.7H683.365ZM812.065 514.54V512.54H810.065V514.54H812.065ZM856.025 514.54H858.025V512.54H856.025V514.54ZM856.025 630.6V632.6H858.025V630.6H856.025ZM812.065 630.6H810.065V632.6H812.065V630.6ZM812.065 592.1H814.065V590.1H812.065V592.1ZM797.645 592.1V590.1H795.645V592.1H797.645ZM797.645 630.6V632.6H799.645V630.6H797.645ZM753.685 630.6H751.685V632.6H753.685V630.6ZM753.685 514.54V512.54H751.685V514.54H753.685ZM797.645 514.54H799.645V512.54H797.645V514.54ZM797.645 552.48H795.645V554.48H797.645V552.48ZM812.065 552.48V554.48H814.065V552.48H812.065ZM812.065 516.54H856.025V512.54H812.065V516.54ZM854.025 514.54V630.6H858.025V514.54H854.025ZM856.025 628.6H812.065V632.6H856.025V628.6ZM814.065 630.6V592.1H810.065V630.6H814.065ZM812.065 590.1H797.645V594.1H812.065V590.1ZM795.645 592.1V630.6H799.645V592.1H795.645ZM797.645 628.6H753.685V632.6H797.645V628.6ZM755.685 630.6V514.54H751.685V630.6H755.685ZM753.685 516.54H797.645V512.54H753.685V516.54ZM795.645 514.54V552.48H799.645V514.54H795.645ZM797.645 554.48H812.065V550.48H797.645V554.48ZM814.065 552.48V514.54H810.065V552.48H814.065ZM886.045 537.78V535.78H885.23L884.647 536.35L886.045 537.78ZM961.645 537.78H963.645V535.78H961.645V537.78ZM961.645 631.3V633.3H963.645V631.3H961.645ZM934.765 631.3L933.177 632.516L933.777 633.3H934.765V631.3ZM926.085 619.96L927.673 618.744L926.258 616.896L924.644 618.573L926.085 619.96ZM915.165 631.3V633.3H916.015L916.605 632.687L915.165 631.3ZM884.925 631.3L883.484 632.687L884.074 633.3H884.925V631.3ZM867.145 612.82H865.145V613.626L865.704 614.207L867.145 612.82ZM867.145 556.26L865.747 554.83L865.145 555.418V556.26H867.145ZM907.605 595.04H905.605V597.04H907.605V595.04ZM921.045 595.04V597.04H923.045V595.04H921.045ZM921.045 568.44H923.045V566.44H921.045V568.44ZM907.605 568.44V566.44H905.605V568.44H907.605ZM886.045 539.78H961.645V535.78H886.045V539.78ZM959.645 537.78V631.3H963.645V537.78H959.645ZM961.645 629.3H934.765V633.3H961.645V629.3ZM936.353 630.084L927.673 618.744L924.497 621.176L933.177 632.516L936.353 630.084ZM924.644 618.573L913.724 629.913L916.605 632.687L927.526 621.347L924.644 618.573ZM915.165 629.3H884.925V633.3H915.165V629.3ZM886.366 629.913L868.586 611.433L865.704 614.207L883.484 632.687L886.366 629.913ZM869.145 612.82V556.26H865.145V612.82H869.145ZM868.543 557.69L887.443 539.21L884.647 536.35L865.747 554.83L868.543 557.69ZM907.605 597.04H921.045V593.04H907.605V597.04ZM923.045 595.04V568.44H919.045V595.04H923.045ZM921.045 566.44H907.605V570.44H921.045V566.44ZM905.605 568.44V595.04H909.605V568.44H905.605ZM972.145 631.3H970.145V633.3H972.145V631.3ZM972.145 537.78V535.78H970.145V537.78H972.145ZM1045.64 537.78L1047.05 536.355L1046.46 535.78H1045.64V537.78ZM1064.4 556.26H1066.4V555.423L1065.81 554.835L1064.4 556.26ZM1064.4 631.3V633.3H1066.4V631.3H1064.4ZM1022.54 631.3H1020.54V633.3H1022.54V631.3ZM1022.54 575.86H1024.54V573.86H1022.54V575.86ZM1013.58 575.86V573.86H1011.58V575.86H1013.58ZM1013.58 631.3V633.3H1015.58V631.3H1013.58ZM974.145 631.3V537.78H970.145V631.3H974.145ZM972.145 539.78H1045.64V535.78H972.145V539.78ZM1044.24 539.205L1063 557.685L1065.81 554.835L1047.05 536.355L1044.24 539.205ZM1062.4 556.26V631.3H1066.4V556.26H1062.4ZM1064.4 629.3H1022.54V633.3H1064.4V629.3ZM1024.54 631.3V575.86H1020.54V631.3H1024.54ZM1022.54 573.86H1013.58V577.86H1022.54V573.86ZM1011.58 575.86V631.3H1015.58V575.86H1011.58ZM1013.58 629.3H972.145V633.3H1013.58V629.3Z" fill="#FAFAFA" mask="url(#path-5-inside-1_163_578)"/>
<path d="M68.88 242.56L64.12 249.98H49V218.34L54.46 212.32V194.26H85.12V212.74L90.3 218.06V249.98H75.74L70.98 242.56H68.88ZM129.5 212.88L134.68 218.2V249.98H119.7L115.36 242.56H113.26L108.5 249.98H93.38V218.34L98.7 212.32V194.26H129.5V212.88ZM45.92 219.32L9.94 244.1H3.78V206.16L21.84 194.68H45.92V219.32ZM3.78 252.92L37.38 229.54H46.06V323.76H9.24V288.2H3.78V252.92ZM112.28 285.96V290.44H134.54V323.34H81.62L73.36 315.78L67.34 323.62H49.28V253.06H76.86V290.44H80.08V253.06H112.28V258.24H133.28V285.96H112.28ZM329 193.14V205.04H347.06V322.5H285.32V209.52L297.5 193.14H329ZM391.58 199.86H414.4V323.06H357V304.44L377.72 290.44V237.38H351.4V207.14L361.62 193.14H391.58V199.86ZM320.46 238.5H313.04V253.62H320.46V238.5ZM373.52 290.02H359.24L351.96 280.5V242H373.52V290.02ZM313.04 294.36H320.46V278.68H313.04V294.36ZM545.16 290.58L556.08 301.22V323.06H530.32L522.06 314.38L513.94 323.34H480.9V194.26H553.98V269.3H511.56V281.2L519.82 272.66H552.72V282.32L545.16 290.58ZM425.32 322.5V195.1H476.98V322.5H425.32ZM524.86 222.54H510.16V227.16H524.86V222.54ZM453.88 225.06H448.42V235.84H453.88V225.06ZM510.16 245.22H524.86V240.6H510.16V245.22ZM448.42 264.4H453.88V254.32H448.42V264.4ZM448.42 293.66H453.88V282.88H448.42V293.66ZM693.98 202.8V303.04H655.34V323.48H604.1V303.04H566.16V202.8H604.1V193.14H655.34V202.8H693.98ZM601.3 236.68V270.7H609.7V236.68H601.3ZM658.14 270.7V236.68H649.74V270.7H658.14ZM135.24 407.68H66.64L63.28 410.9H133.14V473.06H10.92V451.5H4.9V416.64L14.84 407.68H5.04V390.18H27.02V386.96H7.84V369.6H27.02V366.52H7.84V343.98H133.56V358.12L124.74 366.52H71.4V369.6H132.02V386.96H71.4V390.18H135.24V407.68ZM93.8 430.92V427.84H49.28V430.92H93.8ZM49.28 440.16V443.38H93.8V440.16H49.28ZM49.28 456.12H93.8V452.9H49.28V456.12ZM257.46 440.02H274.96V473.48H207.76V441H202.86L191.94 473.48H146.44V460.18L161.98 436.8H149.1V344.12H271.04V436.8H248.64V445.48H253.26L257.46 440.02ZM230.58 370.86H188.58V375.06H230.58V370.86ZM230.58 393.4V389.2H188.58V393.4H230.58ZM188.58 407.96V412.16H230.58V407.96H188.58ZM285.74 402.92V372.68L300.3 347.34H346.36V355.18L339.36 368.62V370.44H361.06V368.62L354.2 355.18V347.34H400.12L414.68 372.68V402.92H285.74ZM287.84 408.1H412.16V472.78H287.84V408.1ZM329.98 436.1V443.8H369.04V436.1H329.98ZM522.62 346.5V361.48H491.4V346.5H496.86V342.58H517.16V346.5H522.62ZM489.16 379.12V393.26H460.18V377.02L466.06 371.14V371H460.32V352.94L469 344.54H488.88V354.2L482.44 360.5V360.78H489.16V373.38L483.56 378.84V379.12H489.16ZM554.12 379.12V393.26H524.58V377.02L530.6 371.14V371H524.86V352.94L533.54 344.54H553.84V354.2L547.54 360.5V360.78H554.12V373.38L548.52 378.84V379.12H554.12ZM425.6 380.8V344.96H457.66V380.8H425.6ZM521.78 363.86V374.36H491.96V363.86H521.78ZM491.96 387.24V376.74H521.78V387.24H491.96ZM425.6 421.12V384.44H457.66V421.12H425.6ZM491.54 412.58V389.9H522.2V412.58H491.54ZM470.26 395.5V412.58H460.32V395.5H470.26ZM479.92 412.58H472.22V395.5H479.92V412.58ZM489.02 412.58H482.02V395.5H489.02V412.58ZM534.24 395.5V412.58H524.44V395.5H534.24ZM544.6 412.58H536.34V395.5H544.6V412.58ZM553.98 412.58H546.7V395.5H553.98V412.58ZM504 400.12V403.06H510.3V400.12H504ZM487.9 442.54H554.96V462.56L546.84 472.78H460.6V456.4H519.68V453.46H460.88V430.22H519.68V427.42H460.6V415.24H554.4V439.88H487.9V442.54ZM425.32 438.76L432.88 424.76H457.66V473.34H425.32V438.76Z" fill="#4527A0"/>
<path d="M265.86 198.32H274.26V229.4H265.86V235.84H237.44V229.4H228.06V235.84H200.34V229.4H193.34V198.32H200.34V193.14H228.06V198.32H237.44V193.14H265.86V198.32ZM145.46 322.36V195.52H189.84V322.36H145.46ZM165.76 228.7V291.98H169.68V228.7H165.76ZM193.34 323.34V239.2H274.26V323.34H193.34ZM224.14 263.14H219.1V273.5H224.14V263.14ZM246.68 273.5V263.14H241.64V273.5H246.68ZM219.1 289.18V299.54H224.14V289.18H219.1ZM241.64 299.54H246.68V289.18H241.64V299.54Z" fill="#26A69A"/>
</svg>
